# File created by Blade
# Date/Time:  Fri Jan 16 17:25:32 2015
#---------------------------------------------------------
:version 1.10
:name HOM
:units
  mass 1.0
  length 1.000000
  angle deg
:documentation
     Acclaim Skeleton File
:root
   axis xyz
   order TX TY TZ RX RY RZ
   position 0.000000 0.000000 0.000000
   orientation 0 0 0
:bonedata
   begin
      id 1
      name Spine_dum
      direction 0.000000 1.000000 0.000000
      length 7.170412
      axis 0.0 0.0 0.0 xyz
   end
   begin
      id 2
      name LeftUpLeg_dum
      direction 1.000000 0.000000 0.000000
      length 4.318350
      axis 0.0 0.0 0.0 xyz
   end
   begin
      id 3
      name RightUpLeg_dum
      direction -1.000000 0.000000 0.000000
      length 4.318350
      axis 0.0 0.0 0.0 xyz
   end
   begin
      id 4
      name Spine
      direction 0.000000 1.000000 0.000000
      length 0.000000
      axis 0.0 0.0 0.0 xyz
      dof rx ry rz
   end
   begin
      id 5
      name Spine_dum1
      direction 0.000000 1.000000 0.000000
      length 14.276153
      axis 0.0 0.0 0.0 xyz
   end
   begin
      id 6
      name Spine_dum2
      direction 0.000000 1.000000 0.000000
      length 10.718243
      axis 0.0 0.0 0.0 xyz
   end
   begin
      id 7
      name Spine_dum3
      direction 0.000000 1.000000 0.000000
      length 10.718243
      axis 0.0 0.0 0.0 xyz
   end
   begin
      id 8
      name Head
      direction 0.000000 1.000000 0.000000
      length 4.527550
      axis 0.0 0.0 0.0 xyz
      dof rx ry rz
   end
   begin
      id 9
      name LeftShoulder
      direction 1.000000 0.000000 0.000000
      length 7.058872
      axis 0.0 0.0 -90.0 xyz
      dof rx ry rz
   end
   begin
      id 10
      name LeftArm
      direction 1.000000 0.000000 0.000000
      length 10.955525
      axis 0.0 0.0 -90.0 xyz
      dof rx ry rz
   end
   begin
      id 11
      name LeftForeArm
      direction 1.000000 0.000000 0.000000
      length 8.193716
      axis 0.0 0.0 -90.0 xyz
      dof ry rz rx
   end
   begin
      id 12
      name LeftHand
      direction 0.000000 0.000000 0.000000
      length 0.000000
      axis 0.0 0.0 -90.0 xyz
      dof rx ry rz
   end
   begin
      id 13
      name LeftHand_dum1
      direction 0.000000 0.000000 0.000000
      length 0.000000
      axis 0.0 0.0 -90.0 xyz
   end
   begin
      id 14
      name LeftHand_dum2
      direction 1.000000 0.000000 0.000000
      length 3.937000
      axis 0.0 0.0 -90.0 xyz
   end
   begin
      id 15
      name LeftHandThumb1
      direction 0.000000 0.000000 1.000000
      length 3.937000
      axis 0.0 0.0 -90.0 xyz
      dof rx rz ry
   end
   begin
      id 16
      name RightShoulder
      direction -1.000000 0.000000 0.000000
      length 7.058872
      axis 0.0 0.0 90.0 xyz
      dof rx ry rz
   end
   begin
      id 17
      name RightArm
      direction -1.000000 0.000000 0.000000
      length 10.955525
      axis 0.0 0.0 90.0 xyz
      dof rx ry rz
   end
   begin
      id 18
      name RightForeArm
      direction -1.000000 0.000000 0.000000
      length 8.193716
      axis 0.0 0.0 90.0 xyz
      dof ry rz rx
   end
   begin
      id 19
      name RightHand
      direction 0.000000 0.000000 0.000000
      length 0.000000
      axis 0.0 0.0 90.0 xyz
      dof rx ry rz
   end
   begin
      id 20
      name RightHand_dum1
      direction 0.000000 0.000000 0.000000
      length 0.000000
      axis 0.0 0.0 90.0 xyz
   end
   begin
      id 21
      name RightHand_dum2
      direction -1.000000 0.000000 0.000000
      length 3.937000
      axis 0.0 0.0 90.0 xyz
   end
   begin
      id 22
      name RightHandThumb1
      direction 0.000000 0.000000 1.000000
      length 3.937000
      axis 0.0 0.0 90.0 xyz
      dof rx rz ry
   end
   begin
      id 23
      name LeftUpLeg
      direction 0.000000 -1.000000 0.000000
      length 17.323638
      axis 0.0 0.0 0.0 xyz
      dof rx ry rz
   end
   begin
      id 24
      name LeftLeg
      direction 0.000000 -1.000000 0.000000
      length 16.270368
      axis 0.0 0.0 0.0 xyz
      dof rx ry rz
   end
   begin
      id 25
      name LeftFoot
      direction 0.000000 -0.258819 0.965926
      length 4.922846
      axis 15.0 0.0 0.0 xyz
      dof rx ry rz
   end
   begin
      id 26
      name LeftToeBase
      direction 0.000000 0.000000 1.000000
      length 2.952750
      axis 0.0 0.0 0.0 xyz
      dof rx ry rz
   end
   begin
      id 27
      name RightUpLeg
      direction 0.000000 -1.000000 0.000000
      length 17.323638
      axis 0.0 0.0 0.0 xyz
      dof rx ry rz
   end
   begin
      id 28
      name RightLeg
      direction 0.000000 -1.000000 0.000000
      length 16.270368
      axis 0.0 0.0 0.0 xyz
      dof rx ry rz
   end
   begin
      id 29
      name RightFoot
      direction 0.000000 -0.258819 0.965926
      length 4.922846
      axis 15.0 0.0 0.0 xyz
      dof rx ry rz
   end
   begin
      id 30
      name RightToeBase
      direction 0.000000 0.000000 1.000000
      length 2.952750
      axis 0.0 0.0 0.0 xyz
      dof rx ry rz
   end
:hierarchy
   begin
      root Spine_dum LeftUpLeg_dum RightUpLeg_dum
      Spine_dum Spine
      LeftUpLeg_dum LeftUpLeg
      RightUpLeg_dum RightUpLeg
      Spine Spine_dum1 Spine_dum2 Spine_dum3
      Spine_dum1 Head
      Spine_dum2 LeftShoulder
      Spine_dum3 RightShoulder
      LeftShoulder LeftArm
      LeftArm LeftForeArm
      LeftForeArm LeftHand
      LeftHand LeftHand_dum1 LeftHand_dum2
      LeftHand_dum1 LeftHandThumb1
      RightShoulder RightArm
      RightArm RightForeArm
      RightForeArm RightHand
      RightHand RightHand_dum1 RightHand_dum2
      RightHand_dum1 RightHandThumb1
      LeftUpLeg LeftLeg
      LeftLeg LeftFoot
      LeftFoot LeftToeBase
      RightUpLeg RightLeg
      RightLeg RightFoot
      RightFoot RightToeBase
   end

# File created by Blade
# Date/Time:  Fri Jan 16 17:25:22 2015
# Frame Rate: 120.000 fps
#------------------------------------------------------
:FULLY-SPECIFIED
:DEGREES
954
root -5.738568 35.246469 -10.785285 -3.511413 -9.827036 -6.184084
Spine 4.087284 1.698032 9.295879
Head 4.435830 7.760640 -5.298504
LeftShoulder -18.323403 16.035192 -16.392028
LeftArm 26.950949 20.823837 -65.296830
LeftForeArm 12.239350 -0.000000 15.549498
LeftHand 0.583047 0.000000 -6.060565
LeftHandThumb1 -26.253704 0.000000 33.147579
RightShoulder -0.971810 -4.107122 2.688744
RightArm 11.291567 -36.990940 65.727236
RightForeArm -25.998285 -0.000000 23.607522
RightHand 1.945871 0.000000 7.574091
RightHandThumb1 -24.326973 -0.000000 -32.862282
LeftUpLeg 13.310629 17.129915 8.542773
LeftLeg -8.880973 -0.000000 0.000000
LeftFoot -14.861989 29.672081 -7.358622
LeftToeBase 23.099244 -0.000000 -0.000000
RightUpLeg 8.472823 -4.151993 2.914772
RightLeg -4.095177 -0.000000 0.000000
RightFoot -3.302402 -22.403119 5.214366
RightToeBase 13.832667 -0.000000 -0.000000
955
root -5.737931 35.246461 -10.784430 -3.501179 -9.817224 -6.182148
Spine 4.062637 1.684429 9.290806
Head 4.513116 7.742157 -5.296540
LeftShoulder -18.335280 16.017155 -16.403502
LeftArm 26.925977 20.805967 -65.305715
LeftForeArm 12.288504 -0.000000 15.529978
LeftHand 0.646647 -0.000000 -5.979067
LeftHandThumb1 -26.253704 0.000000 33.147579
RightShoulder -0.965313 -4.104495 2.697726
RightArm 11.271071 -36.961310 65.736988
RightForeArm -26.029419 -0.000000 23.604080
RightHand 1.961702 -0.000000 7.619639
RightHandThumb1 -24.326973 -0.000000 -32.862282
LeftUpLeg 13.298321 17.125136 8.534162
LeftLeg -8.877009 -0.000000 0.000000
LeftFoot -14.877301 29.687790 -7.340375
LeftToeBase 23.129778 -0.000000 -0.000000
RightUpLeg 8.470155 -4.143665 2.914031
RightLeg -4.106679 -0.000000 0.000000
RightFoot -3.298954 -22.420292 5.228915
RightToeBase 13.832203 -0.000000 -0.000000
956
root -5.737745 35.246282 -10.784564 -3.487913 -9.816256 -6.181756
Spine 4.038216 1.690942 9.284888
Head 4.591903 7.708243 -5.281057
LeftShoulder -18.336690 16.025486 -16.410036
LeftArm 26.917011 20.765184 -65.319668
LeftForeArm 12.325507 -0.000000 15.523984
LeftHand 0.685687 0.000000 -6.016083
LeftHandThumb1 -26.253704 0.000000 33.147579
RightShoulder -0.974475 -4.094438 2.708849
RightArm 11.253821 -36.951946 65.746346
RightForeArm -26.053165 -0.000000 23.594975
RightHand 1.951857 -0.000000 7.620808
RightHandThumb1 -24.326973 -0.000000 -32.862282
LeftUpLeg 13.284037 17.125603 8.529005
LeftLeg -8.877652 -0.000000 0.000000
LeftFoot -14.873570 29.694069 -7.329535
LeftToeBase 23.157205 -0.000000 -0.000000
RightUpLeg 8.453739 -4.151553 2.913433
RightLeg -4.101248 -0.000000 0.000000
RightFoot -3.307075 -22.420495 5.228669
RightToeBase 13.838818 -0.000000 -0.000000
957
root -5.737206 35.246339 -10.782924 -3.484765 -9.816502 -6.181197
Spine 4.020167 1.685754 9.289211
Head 4.679262 7.693549 -5.293618
LeftShoulder -18.355117 16.037852 -16.436838
LeftArm 26.917287 20.724574 -65.325240
LeftForeArm 12.288711 -0.000000 15.519385
LeftHand 0.729767 -0.000000 -5.953030
LeftHandThumb1 -26.253704 0.000000 33.147579
RightShoulder -0.970414 -4.081987 2.705070
RightArm 11.227845 -36.923389 65.773636
RightForeArm -26.050340 0.000000 23.578595
RightHand 1.964464 -0.000000 7.653671
RightHandThumb1 -24.326973 -0.000000 -32.862282
LeftUpLeg 13.286523 17.143743 8.531680
LeftLeg -8.884245 -0.000000 0.000000
LeftFoot -14.863694 29.650296 -7.356602
LeftToeBase 23.114168 -0.000000 -0.000000
RightUpLeg 8.455617 -4.161577 2.911577
RightLeg -4.107476 -0.000000 0.000000
RightFoot -3.291975 -22.409348 5.212973
RightToeBase 13.795403 -0.000000 -0.000000
958
root -5.736412 35.245816 -10.782408 -3.475289 -9.813061 -6.184196
Spine 3.999050 1.677838 9.295451
Head 4.773389 7.646293 -5.301734
LeftShoulder -18.378156 16.008644 -16.444088
LeftArm 26.889435 20.714142 -65.338757
LeftForeArm 12.315054 -0.000000 15.508024
LeftHand 0.733602 0.000000 -5.889761
LeftHandThumb1 -26.253704 0.000000 33.147579
RightShoulder -0.969938 -4.068338 2.696659
RightArm 11.205628 -36.902168 65.802625
RightForeArm -26.086330 -0.000000 23.555879
RightHand 1.973060 -0.000000 7.675344
RightHandThumb1 -24.326973 -0.000000 -32.862282
LeftUpLeg 13.281780 17.158015 8.534418
LeftLeg -8.896604 -0.000000 0.000000
LeftFoot -14.855080 29.648364 -7.298739
LeftToeBase 23.176956 -0.000000 -0.000000
RightUpLeg 8.453164 -4.157222 2.912637
RightLeg -4.116311 -0.000000 0.000000
RightFoot -3.302323 -22.407395 5.207722
RightToeBase 13.899650 -0.000000 -0.000000
959
root -5.735822 35.245823 -10.782074 -3.462007 -9.814881 -6.180873
Spine 3.960807 1.685189 9.292957
Head 4.916575 7.586419 -5.309482
LeftShoulder -18.380761 16.040438 -16.462100
LeftArm 26.905380 20.673581 -65.325140
LeftForeArm 12.322067 0.000000 15.499710
LeftHand 0.754693 -0.000000 -5.870667
LeftHandThumb1 -26.253704 0.000000 33.147579
RightShoulder -0.959702 -4.045919 2.698159
RightArm 11.150631 -36.872667 65.842039
RightForeArm -26.092272 -0.000000 23.532742
RightHand 2.012197 -0.000000 7.724041
RightHandThumb1 -24.326973 -0.000000 -32.862282
LeftUpLeg 13.266635 17.162062 8.524509
LeftLeg -8.891857 -0.000000 0.000000
LeftFoot -14.856490 29.641693 -7.344899
LeftToeBase 23.097037 -0.000000 -0.000000
RightUpLeg 8.441373 -4.157241 2.909441
RightLeg -4.120705 -0.000000 0.000000
RightFoot -3.290516 -22.406637 5.221251
RightToeBase 13.786416 -0.000000 -0.000000
960
root -5.735518 35.245763 -10.781178 -3.451992 -9.813733 -6.183429
Spine 3.925020 1.686967 9.295579
Head 5.077778 7.512787 -5.317320
LeftShoulder -18.380565 16.040811 -16.458589
LeftArm 26.907942 20.739623 -65.299493
LeftForeArm 11.866216 -0.000000 15.458721
LeftHand 0.888548 0.000000 -6.599514
LeftHandThumb1 -26.253704 0.000000 33.147579
RightShoulder -0.953529 -4.060902 2.704843
RightArm 11.153961 -36.868430 65.835406
RightForeArm -26.074651 -0.000000 23.506538
RightHand 2.124672 -0.000000 7.841609
RightHandThumb1 -24.326973 -0.000000 -32.862282
LeftUpLeg 13.261357 17.162122 8.524532
LeftLeg -8.898441 -0.000000 0.000000
LeftFoot -14.842608 29.639205 -7.334784
LeftToeBase 23.065037 -0.000000 -0.000000
RightUpLeg 8.434685 -4.164333 2.913532
RightLeg -4.125482 -0.000000 0.000000
RightFoot -3.293350 -22.417177 5.221194
RightToeBase 13.808819 -0.000000 -0.000000
961
root -5.734520 35.245818 -10.780774 -3.440382 -9.815533 -6.178622
Spine 3.884310 1.689235 9.298636
Head 5.259977 7.456521 -5.341992
LeftShoulder -18.387055 16.037637 -16.483535
LeftArm 26.877245 20.684493 -65.309005
LeftForeArm 11.855645 -0.000000 15.459236
LeftHand 0.902357 -0.000000 -6.674252
LeftHandThumb1 -26.253704 0.000000 33.147579
RightShoulder -0.913363 -4.036665 2.691133
RightArm 11.090993 -36.903355 65.864393
RightForeArm -26.033494 -0.000000 23.499684
RightHand 2.105927 -0.000000 7.871612
RightHandThumb1 -24.326973 -0.000000 -32.862282
LeftUpLeg 13.258828 17.195668 8.518743
LeftLeg -8.918428 -0.000000 0.000000
LeftFoot -14.835729 29.618873 -7.338552
LeftToeBase 23.104797 -0.000000 -0.000000
RightUpLeg 8.423782 -4.172621 2.905946
RightLeg -4.127070 -0.000000 0.000000
RightFoot -3.295087 -22.404466 5.219478
RightToeBase 13.840116 -0.000000 -0.000000
962
root -5.733667 35.245592 -10.780459 -3.422341 -9.818983 -6.179182
Spine 3.829803 1.707197 9.306034
Head 5.469586 7.366097 -5.359050
LeftShoulder -18.366029 16.037146 -16.485938
LeftArm 26.834761 20.634818 -65.328107
LeftForeArm 11.901899 -0.000000 15.453461
LeftHand 0.907899 -0.000000 -6.629483
LeftHandThumb1 -26.253704 0.000000 33.147579
RightShoulder -0.914317 -4.069846 2.684334
RightArm 11.104324 -36.886399 65.866551
RightForeArm -26.013937 0.000000 23.471289
RightHand 2.089610 -0.000000 7.868782
RightHandThumb1 -24.326973 -0.000000 -32.862282
LeftUpLeg 13.233113 17.169458 8.507715
LeftLeg -8.896219 -0.000000 0.000000
LeftFoot -14.866232 29.659404 -7.327833
LeftToeBase 23.128872 -0.000000 -0.000000
RightUpLeg 8.403847 -4.174705 2.906585
RightLeg -4.122791 -0.000000 0.000000
RightFoot -3.288773 -22.401252 5.196883
RightToeBase 13.849205 -0.000000 -0.000000
963
root -5.733721 35.245522 -10.779400 -3.409861 -9.822990 -6.181194
Spine 3.779523 1.726264 9.311989
Head 5.693360 7.268344 -5.382038
LeftShoulder -18.359636 16.070445 -16.500594
LeftArm 26.842533 20.615882 -65.312621
LeftForeArm 11.713821 -0.000000 15.430796
LeftHand 0.939819 -0.000000 -6.960930
LeftHandThumb1 -26.253704 0.000000 33.147579
RightShoulder -0.916579 -4.059949 2.682801
RightArm 11.060452 -36.853283 65.910001
RightForeArm -26.060792 -0.000000 23.442764
RightHand 2.090826 0.000000 7.911825
RightHandThumb1 -24.326973 -0.000000 -32.862282
LeftUpLeg 13.230128 17.223079 8.516441
LeftLeg -8.913663 -0.000000 0.000000
LeftFoot -14.844449 29.611404 -7.291793
LeftToeBase 23.182221 -0.000000 -0.000000
RightUpLeg 8.395435 -4.171042 2.909123
RightLeg -4.127931 -0.000000 0.000000
RightFoot -3.285697 -22.406383 5.185140
RightToeBase 13.869473 -0.000000 -0.000000
964
root -5.731739 35.245576 -10.778802 -3.391134 -9.821779 -6.175695
Spine 3.714199 1.715381 9.317269
Head 5.939454 7.195099 -5.428404
LeftShoulder -18.371726 16.071385 -16.519165
LeftArm 26.814576 20.579275 -65.316265
LeftForeArm 11.687202 0.000000 15.416406
LeftHand 1.037698 0.000000 -6.759817
LeftHandThumb1 -26.253704 0.000000 33.147579
RightShoulder -0.893438 -4.092053 2.679783
RightArm 11.062921 -36.832071 65.904917
RightForeArm -26.086897 -0.000000 23.426977
RightHand 2.113400 -0.000000 7.934790
RightHandThumb1 -24.326973 -0.000000 -32.862282
LeftUpLeg 13.201077 17.187728 8.492741
LeftLeg -8.891576 -0.000000 0.000000
LeftFoot -14.874995 29.652650 -7.331093
LeftToeBase 23.148967 -0.000000 -0.000000
RightUpLeg 8.378997 -4.170173 2.900532
RightLeg -4.132196 -0.000000 0.000000
RightFoot -3.293755 -22.392286 5.207376
RightToeBase 13.844216 -0.000000 -0.000000
